<?xml version="1.0" encoding="UTF-8"?>
<svg id="Layer_1" data-name="Layer 1" xmlns="http://www.w3.org/2000/svg" xmlns:xlink="http://www.w3.org/1999/xlink" version="1.1" viewBox="0 0 40 40">
  <defs>
    <style>
      .cls-1 {
        fill: url(#linear-gradient);
      }

      .cls-1, .cls-2, .cls-3, .cls-4, .cls-5, .cls-6 {
        stroke-width: 0px;
      }

      .cls-2 {
        fill: url(#linear-gradient-4);
      }

      .cls-3 {
        fill: url(#linear-gradient-2);
      }

      .cls-4 {
        fill: url(#linear-gradient-3);
      }

      .cls-5 {
        fill: url(#linear-gradient-5);
      }

      .cls-6 {
        fill: url(#linear-gradient-6);
      }
    </style>
    <linearGradient id="linear-gradient" x1="5" y1="10.8" x2="19.2" y2="10.8" gradientUnits="userSpaceOnUse">
      <stop offset=".3" stop-color="#ffdb6e"/>
      <stop offset="1" stop-color="#ffbc5e"/>
    </linearGradient>
    <linearGradient id="linear-gradient-2" x1="20.5" y1="32.4" x2="35.6" y2="32.4" xlink:href="#linear-gradient"/>
    <linearGradient id="linear-gradient-3" x1="4.4" y1="32.4" x2="19.5" y2="32.4" xlink:href="#linear-gradient"/>
    <linearGradient id="linear-gradient-4" x1="17.4" y1="8.1" x2="30.7" y2="8.1" xlink:href="#linear-gradient"/>
    <linearGradient id="linear-gradient-5" x1="23.9" y1="22.5" x2="32.1" y2="22.5" xlink:href="#linear-gradient"/>
    <linearGradient id="linear-gradient-6" x1="7.8" y1="22.5" x2="16" y2="22.5" xlink:href="#linear-gradient"/>
  </defs>
  <path class="cls-1" d="M11.8,13.7c0,.6-.2,1.1-.2,1.6,0,.5-.4.9-.9,1-.5,0-.9-.1-1.2-.6-.3-.6-.7-1.2-1-1.8,0-.1-.1-.2-.3-.2-1.8-.1-3.1-1.5-3.1-3.2,0-.8,0-1.6,0-2.4.2-1.5,1.6-2.7,3.2-2.7,2.6,0,5.1,0,7.7,0,1.8,0,3.3,1.5,3.3,3.3,0,.6,0,1.1,0,1.7,0,1.9-1.5,3.3-3.4,3.4-1.3,0-2.5,0-3.8,0,0,0-.2,0-.3,0ZM10.2,14s0,0,0,0c0-.2,0-.5,0-.7.1-.8.5-1.1,1.3-1.1,1.4,0,2.8,0,4.3,0,1.1,0,1.9-.8,1.9-1.9,0-.5,0-1,0-1.6,0-1.2-.8-2-2-2-2.5,0-4.9,0-7.4,0-1.2,0-2,.8-2,2,0,.5,0,.9,0,1.4,0,1.3.7,2.1,2,2.1.5,0,.8.2,1,.6.2.4.4.8.6,1.2Z"/>
  <path class="cls-3" d="M28,37.4c-1.8,0-3.5,0-5.3,0-1.2,0-2.1-.8-2.2-2,0-1.1-.1-2.2.1-3.2.6-2.7,3-4.7,5.8-4.8.5,0,.8.3.8.7,0,.4-.3.7-.8.7-2.5,0-4.5,2.1-4.5,4.6,0,.5,0,1.1,0,1.6,0,.5.3.8.8.8,3.5,0,7.1,0,10.6,0,.4,0,.8-.3.8-.7,0-.9,0-1.8,0-2.6-.4-2.2-2.2-3.7-4.4-3.8-.4,0-.7-.2-.8-.5-.1-.5.2-.9.8-.9,1.6,0,3,.6,4.2,1.8,1.2,1.2,1.7,2.6,1.7,4.3,0,.5,0,1.1,0,1.6,0,1.3-1,2.3-2.3,2.3-1.8,0-3.5,0-5.3,0Z"/>
  <path class="cls-4" d="M11.9,37.4c-1.8,0-3.5,0-5.3,0-1.3,0-2.3-.9-2.3-2.3,0-.8,0-1.7,0-2.5.4-2.9,2.8-5.1,5.8-5.2,1.3,0,2.5,0,3.8,0,.9,0,1.8.4,2.6.8.4.3.5.7.3,1-.2.4-.6.4-1.1.2-.7-.4-1.5-.7-2.4-.7-1,0-2.1,0-3.1,0-2.5,0-4.5,2.1-4.5,4.6,0,.6,0,1.1,0,1.7,0,.5.3.8.8.8,3.5,0,7,0,10.5,0,.7,0,.9-.3.9-.9,0-.7,0-1.5,0-2.2,0-.2-.1-.5-.2-.7-.1-.4,0-.8.5-.9.4-.1.8,0,.9.5.1.5.2.9.3,1.4,0,.8,0,1.7,0,2.5,0,1.1-1,1.9-2.2,1.9-1.8,0-3.6,0-5.4,0Z"/>
  <path class="cls-2" d="M23.9,11c-.6,0-1.2,0-1.8,0-.5,0-1,0-1.6,0-.5,0-.8-.3-.8-.7,0-.4.3-.7.8-.7,1.3,0,2.5,0,3.8,0,.6,0,1,.4,1.1,1,0,.3,0,.5.1.9.2-.4.4-.7.6-1.1.3-.5.7-.7,1.2-.7,1.1,0,1.9-.8,1.9-1.9,0-.6,0-1.1,0-1.7,0-1.1-.8-1.9-1.9-1.9-2.5,0-5.1,0-7.6,0-.4,0-.8.1-1.1.4-.4.3-.8.2-1.1-.1-.3-.3-.2-.8.2-1.1.6-.4,1.2-.6,1.8-.6,2.6,0,5.2,0,7.8,0,1.6,0,3.1,1.3,3.2,3,0,.9,0,1.9,0,2.8-.2,1.5-1.5,2.5-3,2.6-.2,0-.3,0-.4.2-.3.6-.6,1.2-1,1.8-.3.5-.7.7-1.2.6-.5,0-.8-.5-.9-1,0-.5-.1-1-.2-1.5,0,0,0,0,0,0Z"/>
  <path class="cls-5" d="M32.1,22.6c0,2.3-1.9,4.1-4.2,4.1-2.3,0-4.1-1.9-4.1-4.2,0-2.2,1.9-4.1,4.2-4.1,2.2,0,4.1,1.9,4.1,4.1ZM28.1,19.9c-1.5,0-2.7,1.2-2.7,2.6,0,1.5,1.2,2.7,2.7,2.7,1.4,0,2.6-1.2,2.7-2.6,0-1.5-1.2-2.7-2.6-2.7Z"/>
  <path class="cls-6" d="M16,22.6c0,2.3-1.9,4.1-4.1,4.1-2.2,0-4.1-1.9-4.1-4.1,0-2.3,1.9-4.1,4.2-4.1,2.2,0,4.1,1.9,4.1,4.1ZM11.9,25.2c1.5,0,2.7-1.2,2.7-2.6,0-1.5-1.2-2.7-2.7-2.7-1.5,0-2.7,1.2-2.7,2.6,0,1.5,1.2,2.7,2.6,2.7Z"/>
</svg>