<?xml version="1.0" encoding="UTF-8"?>
<svg id="Layer_1" data-name="Layer 1" xmlns="http://www.w3.org/2000/svg" xmlns:xlink="http://www.w3.org/1999/xlink" version="1.1" viewBox="0 0 40 40">
  <defs>
    <style>
      .cls-1 {
        fill: url(#linear-gradient);
      }

      .cls-1, .cls-2, .cls-3 {
        stroke-width: 0px;
      }

      .cls-2 {
        fill: url(#linear-gradient-2);
      }

      .cls-3 {
        fill: url(#linear-gradient-3);
      }
    </style>
    <linearGradient id="linear-gradient" x1="12.2" y1="20.2" x2="37.9" y2="20.2" gradientUnits="userSpaceOnUse">
      <stop offset=".3" stop-color="#ffdb6e"/>
      <stop offset="1" stop-color="#ffbc5e"/>
    </linearGradient>
    <linearGradient id="linear-gradient-2" x1="2.1" y1="18.6" x2="10" y2="18.6" xlink:href="#linear-gradient"/>
    <linearGradient id="linear-gradient-3" x1="5.9" y1="17" x2="13.4" y2="17" xlink:href="#linear-gradient"/>
  </defs>
  <path class="cls-1" d="M14.1,23c.2,0,.3,0,.5,0,.3,0,.7,0,1,0,.4,0,.6-.3.6-.7,0-2.5,0-5,0-7.5,0-.4-.1-.5-.5-.5-.6,0-1.2,0-1.8,0-.7.2-1.1.6-1.2,1.3,0,.4-.1.9-.2,1.3,0,0,0,0,0,.1h-.4c0-1.1.2-2.1.3-3.2h8.7c0,1,.2,2,.3,3h6.7c.1,1.1.3,2.1.4,3.2-.1,0-.2,0-.3,0,0,0,0,0,0,0,0-.4-.1-.8-.2-1.1-.1-.5-.4-.9-.8-1.2-.3-.2-.7-.3-1.1-.3-.9,0-1.8,0-2.7,0-.3,0-.5.2-.5.5,0,.7,0,1.4,0,2.1,0,.5,0,.9,0,1.4,0,0,0,0,.1,0,.5,0,1,0,1.5,0,.2,0,.4,0,.6-.1.4-.2.6-.5.6-.9,0-.2,0-.4,0-.6h.3v3.8h-.3c0-.1,0-.2,0-.3,0-.2,0-.3,0-.5,0-.5-.4-.8-.9-.8-.2,0-.4,0-.6,0-.4,0-.9,0-1.3,0,0,0,0,0,0,.1,0,1.2,0,2.5,0,3.7,0,.3.1.5.5.5,0,0,0,0,.1,0,.7,0,1.4,0,2.1,0,.4,0,.8,0,1.2-.1.6-.2,1-.5,1.3-1.1.2-.4.3-.9.4-1.4h-.6v-.4c.2,0,.3,0,.5,0,0,0,.2,0,.2-.1,0,0,0,0,.1,0,.4,0,.7-.1.9-.4.2-.2.3-.4.5-.6.6-.9,1.3-1.9,1.9-2.8,0-.1.1-.2.2-.3,0,0,0-.2,0-.2-.8-1.2-1.7-2.5-2.5-3.8-.3-.4-.6-.6-1.1-.6-.2,0-.4,0-.6,0v-.4h3.9v.4c-.2,0-.3,0-.5,0-.1,0-.2,0-.3.2-.1,0-.1.2,0,.3,0,.1.1.2.2.3.5.7,1,1.4,1.5,2.2,0,.1.1.2.2.4,0,0,.1-.1.1-.2.4-.7.9-1.3,1.3-2,0-.1.1-.2.2-.3.1-.3,0-.5-.2-.7-.2-.1-.4-.2-.6-.2v-.4h3.4v.4c-.2,0-.4,0-.6,0-.6,0-1.1.4-1.4.9-.6.9-1.2,1.8-1.8,2.6,0,0-.1.1-.2.2.7,1.1,1.4,2.1,2.1,3.2.3.4.5.8.8,1.2.2.2.3.4.6.5.2,0,.4,0,.6,0,.1,0,.3,0,.4,0v.4h-3.9v-.4c.2,0,.3,0,.5-.1,0,0,.2,0,.2-.1.2-.1.2-.2,0-.4-.3-.4-.6-.9-.9-1.3-.4-.7-.9-1.3-1.3-2,0,0,0,0,0,0-.1.2-.2.3-.3.5-.5.8-1.1,1.6-1.6,2.4-.3.4-.2.6,0,.8.1.1.3.2.4.2,0,0,.2,0,.3,0v.4h-2.5c-.2,1-.3,2-.5,3.1h-8.2v-.4c.1,0,.2,0,.4,0,.2,0,.5,0,.7,0,.3,0,.4-.2.4-.5,0,0,0,0,0-.1,0-2.4,0-4.9,0-7.3,0,0,0,0,0,0,0-.4-.2-.6-.6-.6-.2,0-.4,0-.7,0,0,0-.1,0-.2,0v-.4h1c0-.3,0-.5,0-.7,0-.3-.1-.5-.2-.8-.1-.5-.5-.8-1-.9-.5-.2-1.1-.1-1.6-.1-.2,0-.3,0-.5,0-.2,0-.3.2-.3.4,0,0,0,0,0,.1,0,2.5,0,5,0,7.5,0,0,0,.2,0,.2,0,.2.2.4.6.4.4,0,.7,0,1.1,0,.1,0,.3,0,.4,0v.4s0,0-.1,0c-1.7,0-3.4,0-5.1,0-.1,0-.1,0-.1-.1,0,0,0-.2,0-.3Z"/>
  <path class="cls-2" d="M9.6,19.8h.4c0,.2,0,.3,0,.5,0,.5-.1,1.1-.2,1.6,0,.5-.1,1-.2,1.5,0,0,0,.1-.1.1-2.4,0-4.8,0-7.2,0,0,0,0,0,0,0v-.4c.1,0,.2,0,.4,0,.2,0,.5,0,.7,0,.2,0,.4-.3.4-.5,0,0,0,0,0,0,0-2.5,0-5,0-7.5,0,0,0-.2,0-.3,0-.2-.3-.4-.6-.4-.3,0-.6,0-.9,0v-.4h4.5v.4c-.2,0-.4,0-.6,0-.3,0-.6,0-.8,0-.2,0-.4.2-.4.5,0,0,0,.1,0,.2,0,2.5,0,5,0,7.4,0,0,0,.1,0,.2,0,.3.1.4.4.4.5,0,.9,0,1.4,0,.3,0,.5,0,.8,0,.4,0,.7-.2,1.1-.4.4-.3.7-.7.8-1.2.2-.5.2-1,.3-1.6Z"/>
  <path class="cls-3" d="M5.9,20.5v-.3c.1,0,.3,0,.4,0,.4,0,.6-.3.7-.6.1-.4.3-.7.4-1.1.5-1.3,1-2.6,1.6-3.9.1-.3.2-.5.3-.8,0-.1.1-.2.3-.2.2,0,.3,0,.3.2.2.4.3.9.5,1.3.6,1.6,1.2,3.2,1.9,4.8.1.4.3.4.7.5.1,0,.3,0,.4,0v.4c-.9-.1-1.9,0-2.8,0v-.3c.2,0,.4,0,.5,0,.2,0,.3-.2.2-.4-.2-.5-.4-.9-.6-1.4,0,0,0,0-.1,0-.3,0-.5,0-.8,0-.6,0-1.2,0-1.7,0-.2,0-.3,0-.3.2-.1.3-.3.6-.4.9-.2.4,0,.7.4.7,0,0,.1,0,.2,0v.3h-2.2ZM10.6,17.9c-.4-1.1-.8-2.1-1.3-3.2-.4,1.1-.8,2.2-1.3,3.2h2.5Z"/>
</svg>